<?xml version="1.0" encoding="utf-8"?>
<!-- Generator: Adobe Illustrator 17.1.0, SVG Export Plug-In . SVG Version: 6.00 Build 0)  -->
<!DOCTYPE svg PUBLIC "-//W3C//DTD SVG 1.1//EN" "http://www.w3.org/Graphics/SVG/1.1/DTD/svg11.dtd">
<svg version="1.1" xmlns="http://www.w3.org/2000/svg" xmlns:xlink="http://www.w3.org/1999/xlink" x="0px" y="0px"
	 viewBox="0 0 500 500" enable-background="new 0 0 500 500" xml:space="preserve">
<g id="Background_Complete">
	<g>
		<rect x="1.6" y="376.9" fill="#EBEBEB" width="500" height="0.3"/>
		<rect x="396" y="388.4" fill="#EBEBEB" width="50.9" height="0.3"/>
		<rect x="54.1" y="385.4" fill="#EBEBEB" width="47.2" height="0.3"/>
		<rect x="380.4" y="383.8" fill="#EBEBEB" width="19.2" height="0.3"/>
		<rect x="318.7" y="390.4" fill="#EBEBEB" width="14.1" height="0.3"/>
		<rect x="274.4" y="390.4" fill="#EBEBEB" width="35.4" height="0.3"/>
		<rect x="196.8" y="386.2" fill="#EBEBEB" width="57" height="0.3"/>
		<path fill="#EBEBEB" d="M238.6,332.3H45.5c-3.1,0-5.7-2.6-5.7-5.7V55.2c0-3.1,2.6-5.7,5.7-5.7h193.1c3.1,0,5.7,2.6,5.7,5.7v271.4
			C244.3,329.8,241.8,332.3,238.6,332.3z M45.5,49.7c-3,0-5.5,2.4-5.5,5.5v271.4c0,3,2.4,5.5,5.5,5.5h193.1c3,0,5.5-2.4,5.5-5.5
			V55.2c0-3-2.4-5.5-5.5-5.5H45.5z"/>
		<path fill="#EBEBEB" d="M454.9,332.3H261.8c-3.1,0-5.7-2.6-5.7-5.7V55.2c0-3.1,2.6-5.7,5.7-5.7h193.1c3.1,0,5.7,2.6,5.7,5.7v271.4
			C460.6,329.8,458.1,332.3,454.9,332.3z M261.8,49.7c-3,0-5.5,2.4-5.5,5.5v271.4c0,3,2.4,5.5,5.5,5.5h193.1c3,0,5.5-2.4,5.5-5.5
			V55.2c0-3-2.4-5.5-5.5-5.5H261.8z"/>
	</g>
	<path fill="#D2E2F0" d="M185.9,34.1C210.7,23,236,11.7,263,8.8c24.3-2.6,48.7,1.9,72.8,6.3c14.2,2.6,28.4,5.2,42.6,7.9
		c3.7,2.6,5.9,7.1,5.7,11.7c18.1-0.7,36.2-1.3,54.4-2c8.6-0.3,17.8-0.4,24.9,4.4c8.8,6,11.4,17.6,13.3,28.1c2,10.8,4,21.6,4,32.6
		c0,9.1-1.4,18.1-2.8,27.1c-8.7,55.7-18.3,112.1-42.8,162.8c-23.7,49-61.1,91.3-106.9,120.8c-6.2,4-12.5,7.7-19.5,9.9
		c-6.9,2.1-14.1,2.6-21.3,3.4c-20.1,2.1-39.9,6.2-59.2,12.3c-8.6,10.9,0.7,29.9-9.2,39.6c-3.7,3.6-9,4.8-14,5.6
		c-25.8,4.4-53.1,4.5-77.2-5.7c-16.9-7.2-31.3-19-45.4-30.7c-18-14.9-41-25-46.3-47.7s2.2-47.9,18.9-64.3
		c-9.5-13.5-20.7-25.9-33.3-36.7c-0.6-18,14.6-32,27.6-44.5c20.8-19.9,39.2-42.3,54.5-66.7c4.8-7.6,7.7-20.4-0.8-23.4
		c-6.9-2.4-11-9.5-14.4-16c-8.1-15.6-16.3-31.2-24.4-46.7C58,85,51.7,71.7,55.4,58.9C60.1,42.4,83.6,35,97,45.8
		c4.2,3.4,10.1,3.7,15.6,3.8c16,0.3,32.1,0.6,48.1,1c2.8-12.2,18.2-19.6,29.5-14.3C192,37.1,187.7,33.3,185.9,34.1z"/>
	<g>
		<g>
			<g>
				<rect x="65.2" y="83.4" fill="#CED8E1" width="166" height="211.2"/>
				<rect x="63.2" y="83.4" fill="#206EB6" width="166" height="211.2"/>
				<rect x="67.8" y="88" fill="#E5C8BA" width="156.7" height="201.9"/>
				<path fill="#206EB6" d="M166.8,245.5c3.2,15.3-10,28.6-25.3,25.3c-8-1.7-14.4-8.1-16.1-16.1c-3.2-15.3,10-28.6,25.3-25.3
					C158.8,231.1,165.1,237.5,166.8,245.5z"/>
				<path fill="#2F2E50" d="M168.6,189c0,3.9-3.4,6.8-5.2,10c-1.9,3.2-2.8,7.6-6,9.5c-3.1,1.8-7.4,0.5-11.2,0.5
					c-3.9,0-8.1,1.3-11.2-0.5c-3.2-1.9-4.2-6.3-6-9.5c-1.8-3.1-5.2-6.1-5.2-10c0-3.9,3.4-6.8,5.2-10c1.9-3.2,2.8-7.6,6-9.5
					c3.1-1.8,7.4-0.5,11.2-0.5c3.9,0,8.1-1.3,11.2,0.5c3.2,1.9,4.2,6.3,6,9.5C165.2,182.1,168.6,185.1,168.6,189z"/>
				<polygon fill="#69084F" points="170.5,127.9 163.2,133.4 165.9,142.2 156.7,142.4 153.7,151.1 146.1,145.8 138.6,151.1 
					135.6,142.4 126.4,142.2 129,133.4 121.8,127.9 129,122.3 126.4,113.5 135.6,113.3 138.6,104.7 146.1,109.9 153.7,104.7 
					156.7,113.3 165.9,113.5 163.2,122.3 				"/>
			</g>
		</g>
		<g>
			<rect x="423.6" y="293.6" fill="#206EB6" width="19.8" height="80.4"/>
			<rect x="275.3" y="374.1" fill="#206EB6" width="162.9" height="3.7"/>
			<rect x="270" y="293.6" fill="#206EB6" width="153.6" height="80.4"/>
			<rect x="280.7" y="322.7" fill="#206EB6" width="132.2" height="19.1"/>
			<rect x="280.7" y="347.7" fill="#206EB6" width="132.2" height="19.1"/>
			<path fill="#206EB6" d="M307.9,324h77.8c0.7,0,1.3-0.6,1.3-1.3v-0.1c0-0.7-0.6-1.3-1.3-1.3h-77.8c-0.7,0-1.3,0.6-1.3,1.3v0.1
				C306.7,323.4,307.3,324,307.9,324z"/>
			<path fill="#206EB6" d="M307.9,349h77.8c0.7,0,1.3-0.6,1.3-1.3v-0.1c0-0.7-0.6-1.3-1.3-1.3h-77.8c-0.7,0-1.3,0.6-1.3,1.3v0.1
				C306.7,348.5,307.3,349,307.9,349z"/>
			<rect x="280.7" y="297.6" fill="#206EB6" width="132.2" height="19.1"/>
			<path fill="#206EB6" d="M307.9,299h77.8c0.7,0,1.3-0.6,1.3-1.3v-0.1c0-0.7-0.6-1.3-1.3-1.3h-77.8c-0.7,0-1.3,0.6-1.3,1.3v0.1
				C306.7,298.4,307.3,299,307.9,299z"/>
		</g>
		<g>
			<path fill="#206EB6" d="M427.3,69c3.6,13.5-8.4,25.5-21.9,21.9c-5.9-1.6-10.7-6.3-12.2-12.2c-3.6-13.5,8.4-25.5,21.9-21.9
				C421,58.3,425.7,63,427.3,69z"/>
			<path fill="#9CB0C3" d="M419.9,70.3c2.6,9.9-6.2,18.7-16.1,16.1c-4.4-1.1-8-4.7-9.1-9.1c-2.6-9.9,6.2-18.7,16.1-16.1
				C415.2,62.3,418.7,65.9,419.9,70.3z"/>
			<path fill="#206EB6" d="M406.8,72.8c0.9,2.1-1.1,4.1-3.2,3.2c-0.5-0.2-0.9-0.6-1.1-1.1c-0.9-2.1,1.1-4.1,3.2-3.2
				C406.2,71.9,406.6,72.3,406.8,72.8z"/>
			<path fill="#E7CDB6" d="M415.4,95.7c-3.1,0-5.3-0.5-5.5-0.6c-0.7-0.2-1.2-0.9-1-1.6c0.2-0.7,0.9-1.2,1.6-1
				c0.1,0,9.3,2.2,15.5-2.7c4-3.1,6-8.5,6-16c0-0.7,0.6-1.3,1.3-1.3c0.7,0,1.3,0.6,1.3,1.3c0,8.3-2.4,14.4-7,18.1
				C423.7,95,419,95.7,415.4,95.7z"/>
			<path fill="#206EB6" d="M430.9,75.6c-0.7-0.4-1.1-1.2-1.1-2v-4.8c0-0.8,0.4-1.6,1.1-2c1.9-1.1,3.8,0.3,3.8,2.1v4.7
				C434.7,75.3,432.8,76.6,430.9,75.6z"/>
		</g>
	</g>
</g>
<g id="Background_Simple" display="none">
	<g display="inline">
		<path fill="#407BFF" d="M391.2,236.3c-3.6-38.9-87.7-129.1-149.8-150.8C160.9,57.2,77.3,94,59.8,178.8
			C43.5,257.6,105.3,321,186.2,328.9C258.2,336,397.9,282.9,391.2,236.3z"/>
		<path opacity="0.9" fill="#FFFFFF" d="M391.2,236.3c-3.6-38.9-87.7-129.1-149.8-150.8C160.9,57.2,77.3,94,59.8,178.8
			C43.5,257.6,105.3,321,186.2,328.9C258.2,336,397.9,282.9,391.2,236.3z"/>
	</g>
</g>
<g id="Shadow_1_">
	<ellipse id="_x3C_Path_x3E__84_" fill="#F0E1D2" cx="250" cy="416.2" rx="193.9" ry="11.3"/>
</g>
<g id="Board">
	<g>
		<rect x="253.6" y="112.4" fill="#263238" width="192.8" height="140.4"/>
		<path fill="#FFFFFF" d="M304.8,177.2c-1,0-1.9-0.4-2.8-0.8c-0.6-0.3-1.2-0.5-1.8-0.6c-0.6-0.1-1.3-0.1-2-0.1c-1,0-2,0-2.9-0.4
			c-0.9-0.4-1.6-1.1-2.3-1.8c-0.5-0.5-1-1-1.5-1.3c-0.5-0.4-1.2-0.6-1.8-0.9c-0.9-0.4-1.8-0.7-2.5-1.4c-0.7-0.7-1.1-1.6-1.4-2.5
			c-0.3-0.6-0.5-1.3-0.9-1.8c-0.4-0.5-0.8-1-1.3-1.5c-0.7-0.7-1.4-1.4-1.8-2.3c-0.4-0.9-0.4-1.9-0.4-2.9c0-0.7,0-1.4-0.1-2
			c-0.1-0.6-0.4-1.2-0.6-1.8c-0.4-0.9-0.8-1.8-0.8-2.8s0.4-1.9,0.8-2.8c0.3-0.6,0.5-1.2,0.6-1.8c0.1-0.6,0.1-1.3,0.1-2
			c0-1,0-2,0.4-2.9c0.4-0.9,1.1-1.6,1.8-2.3c0.5-0.5,1-1,1.3-1.5c0.4-0.5,0.6-1.2,0.9-1.8c0.4-0.9,0.7-1.8,1.4-2.5
			c0.7-0.7,1.6-1.1,2.5-1.4c0.6-0.3,1.3-0.5,1.8-0.9c0.5-0.4,1-0.8,1.5-1.3c0.7-0.7,1.4-1.4,2.3-1.8c0.9-0.4,1.9-0.4,2.9-0.4
			c0.7,0,1.4,0,2-0.1c0.6-0.1,1.2-0.4,1.8-0.6c0.9-0.4,1.8-0.8,2.8-0.8s1.9,0.4,2.8,0.8c0.6,0.3,1.2,0.5,1.8,0.6
			c0.6,0.1,1.3,0.1,2,0.1c1,0,2,0,2.9,0.4c0.9,0.4,1.6,1.1,2.3,1.8c0.5,0.5,1,1,1.5,1.3c0.5,0.4,1.2,0.6,1.8,0.9
			c0.9,0.4,1.8,0.7,2.5,1.4c0.7,0.7,1.1,1.6,1.4,2.5c0.3,0.6,0.5,1.3,0.9,1.8c0.4,0.5,0.8,1,1.3,1.5c0.7,0.7,1.4,1.4,1.8,2.3
			c0.4,0.9,0.4,1.9,0.4,2.9c0,0.7,0,1.4,0.1,2c0.1,0.6,0.4,1.2,0.6,1.8c0.4,0.9,0.8,1.8,0.8,2.8c0,1-0.4,1.9-0.8,2.8
			c-0.3,0.6-0.5,1.2-0.6,1.8c-0.1,0.6-0.1,1.3-0.1,2c0,1,0,2-0.4,2.9c-0.4,0.9-1.1,1.6-1.8,2.3c-0.5,0.5-1,1-1.3,1.5
			c-0.4,0.5-0.6,1.2-0.9,1.8c-0.4,0.9-0.7,1.8-1.4,2.5c-0.7,0.7-1.6,1.1-2.5,1.4c-0.6,0.3-1.3,0.5-1.8,0.9c-0.5,0.4-1,0.8-1.5,1.3
			c-0.7,0.7-1.4,1.4-2.3,1.8c-0.9,0.4-1.9,0.4-2.9,0.4c-0.7,0-1.4,0-2,0.1c-0.6,0.1-1.2,0.4-1.8,0.6
			C306.8,176.8,305.8,177.2,304.8,177.2z M298.6,175.1c0.6,0,1.2,0,1.7,0.1c0.7,0.1,1.3,0.4,1.9,0.7c0.9,0.4,1.7,0.7,2.6,0.7
			s1.8-0.4,2.6-0.7c0.6-0.3,1.3-0.5,1.9-0.7c0.7-0.1,1.4-0.1,2.1-0.1c1,0,1.9,0,2.7-0.3c0.8-0.3,1.5-1,2.1-1.7c0.5-0.5,1-1,1.6-1.4
			c0.6-0.4,1.2-0.7,1.9-0.9c0.9-0.4,1.7-0.7,2.4-1.3c0.6-0.6,1-1.5,1.3-2.4c0.3-0.6,0.5-1.3,0.9-1.9c0.4-0.6,0.9-1.1,1.4-1.6
			c0.7-0.7,1.3-1.3,1.7-2.1c0.3-0.8,0.3-1.7,0.3-2.7c0-0.7,0-1.4,0.1-2.1c0.1-0.7,0.4-1.3,0.7-1.9c0.4-0.9,0.7-1.7,0.7-2.6
			c0-0.9-0.4-1.8-0.7-2.6c-0.3-0.6-0.5-1.3-0.7-1.9c-0.1-0.7-0.1-1.4-0.1-2.1c0-1,0-1.9-0.3-2.7c-0.3-0.8-1-1.5-1.7-2.1
			c-0.5-0.5-1-1-1.4-1.6c-0.4-0.6-0.7-1.2-0.9-1.9c-0.4-0.9-0.7-1.7-1.3-2.4c-0.6-0.6-1.5-1-2.4-1.3c-0.6-0.3-1.3-0.5-1.9-0.9
			c-0.6-0.4-1.1-0.9-1.6-1.4c-0.7-0.7-1.3-1.3-2.1-1.7c-0.8-0.3-1.7-0.3-2.7-0.3c-0.7,0-1.4,0-2.1-0.1c-0.7-0.1-1.3-0.4-1.9-0.7
			c-0.9-0.4-1.7-0.7-2.6-0.7s-1.8,0.4-2.6,0.7c-0.6,0.3-1.3,0.5-1.9,0.7c-0.7,0.1-1.4,0.1-2.1,0.1c-1,0-1.9,0-2.7,0.3
			c-0.8,0.3-1.5,1-2.1,1.7c-0.5,0.5-1,1-1.6,1.4c-0.6,0.4-1.2,0.7-1.9,0.9c-0.9,0.4-1.7,0.7-2.4,1.3c-0.6,0.6-1,1.5-1.3,2.4
			c-0.3,0.6-0.5,1.3-0.9,1.9c-0.4,0.6-0.9,1.1-1.4,1.6c-0.7,0.7-1.3,1.3-1.7,2.1c-0.3,0.8-0.3,1.7-0.3,2.7c0,0.7,0,1.4-0.1,2.1
			c-0.1,0.7-0.4,1.3-0.7,1.9c-0.4,0.9-0.7,1.7-0.7,2.6c0,0.9,0.4,1.8,0.7,2.6c0.3,0.6,0.5,1.3,0.7,1.9c0.1,0.7,0.1,1.4,0.1,2.1
			c0,1,0,1.9,0.3,2.7c0.3,0.8,1,1.5,1.7,2.1c0.5,0.5,1,1,1.4,1.6c0.4,0.6,0.7,1.2,0.9,1.9c0.4,0.9,0.7,1.7,1.3,2.4
			c0.6,0.6,1.5,1,2.4,1.3c0.6,0.3,1.3,0.5,1.9,0.9c0.6,0.4,1.1,0.9,1.6,1.4c0.7,0.7,1.3,1.3,2.1,1.7c0.8,0.3,1.7,0.3,2.7,0.3
			C298.3,175.1,298.4,175.1,298.6,175.1z"/>
		<circle fill="#FFFFFF" cx="304.8" cy="152.2" r="14"/>
		<path fill="#FFFFFF" d="M314.9,138.4c-0.1,0-0.1,0-0.2-0.1c-0.1-0.1-0.1-0.3,0-0.4l11-11c0,0,0.1-0.1,0.2-0.1h21.7
			c0.1,0,0.3,0.1,0.3,0.3c0,0.1-0.1,0.3-0.3,0.3h-21.6L315,138.4C315,138.4,314.9,138.4,314.9,138.4z"/>
		<path fill="#FFFFFF" d="M287.6,191.7h-21.7c-0.1,0-0.3-0.1-0.3-0.3c0-0.1,0.1-0.3,0.3-0.3h21.6l10.9-10.9c0.1-0.1,0.3-0.1,0.4,0
			c0.1,0.1,0.1,0.3,0,0.4l-11,11C287.7,191.7,287.6,191.7,287.6,191.7z"/>
		<g>
			<path fill="#FFFFFF" d="M360.2,127.9c-0.1,0-0.1,0-0.2-0.1c-0.1-0.1,0-0.2,0-0.3c0.8-0.6,1.7-1.2,2.7-1.6
				c0.4-0.2,0.9-0.4,1.4-0.4c0,0,0,0,0,0c0.5,0,1,0.2,1.4,0.4c0.2,0.1,0.3,0.2,0.5,0.2c1.4,0.5,3,0.1,4.7-0.3c1.5-0.4,3-0.8,4.5-0.5
				c0.4,0.1,0.7,0.2,1,0.3c0.2,0.1,0.4,0.1,0.6,0.2c2,0.6,4.2,0.2,6.4-0.1c0.4-0.1,0.9-0.1,1.3-0.2c2.9-0.4,5.1-0.2,6.9,0.5
				c0.3,0.1,0.6,0.3,0.8,0.4c0.7,0.3,1.3,0.7,2.1,0.7c0.8,0.1,1.6-0.2,2.4-0.5c0.3-0.1,0.5-0.2,0.8-0.3c2.4-0.7,5.1-0.5,7.7-0.2
				l0.5,0c7,0.6,14.1,0.7,21.1,0.1c0.1,0,0.2,0.1,0.2,0.2c0,0.1-0.1,0.2-0.2,0.2c-7,0.6-14.2,0.5-21.2-0.1l-0.5,0
				c-2.5-0.2-5.2-0.5-7.5,0.2c-0.3,0.1-0.5,0.2-0.8,0.3c-0.8,0.3-1.7,0.6-2.6,0.5c-0.8-0.1-1.5-0.4-2.2-0.8
				c-0.3-0.1-0.5-0.3-0.8-0.4c-1.6-0.7-3.8-0.9-6.6-0.5c-0.4,0.1-0.9,0.1-1.3,0.2c-2.2,0.3-4.5,0.7-6.6,0.1
				c-0.2-0.1-0.4-0.1-0.6-0.2c-0.3-0.1-0.7-0.2-1-0.3c-1.4-0.3-2.9,0.1-4.3,0.5c-1.7,0.4-3.4,0.9-4.9,0.3c-0.2-0.1-0.4-0.1-0.5-0.2
				c-0.4-0.2-0.8-0.3-1.2-0.4c-0.4,0-0.8,0.2-1.2,0.4c-0.9,0.5-1.8,1-2.6,1.6C360.3,127.8,360.3,127.9,360.2,127.9z"/>
			<path fill="#FFFFFF" d="M398.1,133.6c-0.9,0-1.7-0.3-2.6-0.6c-0.9-0.3-1.7-0.6-2.6-0.6c-0.6,0-1.2,0.2-1.9,0.3
				c-0.4,0.1-0.8,0.2-1.2,0.3c-1.1,0.2-2.2,0.1-3.3,0l-0.1,0c-4.9-0.5-9.9-0.7-14.7-0.8c-1.7-0.1-3.5,0.2-3.8,1.1
				c0,0.1-0.1,0.1-0.2,0.2c-0.1,0-0.2,0-0.2-0.1c-0.5-0.9-2.1-1.3-3.3-1.2c-1.4,0.1-2.7,0.6-3.9,1.1c-0.1,0-0.2,0-0.3-0.1
				c0-0.1,0-0.2,0.1-0.3c1.2-0.5,2.5-1,4-1.1c1.2-0.1,2.7,0.2,3.5,1.1c0.7-1.1,3-1.1,4-1.1c4.8,0.2,9.9,0.4,14.8,0.8l0.1,0
				c1.1,0.1,2.2,0.2,3.2,0c0.4-0.1,0.8-0.2,1.2-0.3c0.6-0.2,1.3-0.3,2-0.3c1,0,1.9,0.3,2.8,0.6c1.1,0.4,2.1,0.8,3.2,0.5
				c0.3-0.1,0.6-0.2,1-0.4c0.2-0.1,0.3-0.2,0.5-0.2c1.6-0.7,3.5-0.6,5.3-0.4c1,0.1,2.1,0.1,3.2,0.1c0.1,0,0.2,0.1,0.2,0.2
				c0,0.1-0.1,0.2-0.2,0.2c-1.1,0.1-2.2,0-3.2-0.1c-1.9-0.1-3.6-0.2-5.1,0.4c-0.2,0.1-0.3,0.2-0.5,0.2c-0.3,0.2-0.7,0.3-1.1,0.4
				C398.7,133.6,398.4,133.6,398.1,133.6z"/>
			<path fill="#FFFFFF" d="M360.2,140.2c-0.1,0-0.2-0.1-0.2-0.1c0-0.1,0-0.2,0.1-0.3c1.6-0.7,3.4-1.2,5.1-1.7
				c0.9-0.2,1.8-0.4,2.9-0.4c0.6,0,1.2,0.2,1.7,0.4c0.6,0.2,1.1,0.3,1.7,0.3c0.6,0.1,1.3,0,2-0.1c1-0.1,2-0.3,3,0.1
				c0.3,0.1,0.6,0.3,0.8,0.4c0.3,0.1,0.5,0.3,0.8,0.4c1.3,0.4,2.6-0.1,4-0.8c1.2-0.6,2.5-1.1,3.9-1c1,0.1,1.8,0.5,2.5,1
				c0.9,0.5,1.7,0.9,2.7,0.9c0.5,0,0.9-0.2,1.3-0.3l0.1,0c3.5-1.1,7.4-1.5,11.2-1.1l0.2,0c0.5,0,1.1,0.1,1.6,0c0.3,0,0.6-0.1,1-0.2
				c0.2-0.1,0.5-0.1,0.7-0.2c1.4-0.3,2.9,0,4.3,0.3c0.3,0.1,0.6,0.1,0.8,0.2c3.7,0.7,7.7,0.5,11.2-0.4c0.1,0,0.2,0,0.3,0.2
				c0,0.1,0,0.2-0.2,0.3c-3.6,0.9-7.7,1-11.4,0.4c-0.3-0.1-0.6-0.1-0.8-0.2c-1.4-0.3-2.8-0.6-4.2-0.3c-0.2,0-0.4,0.1-0.7,0.2
				c-0.3,0.1-0.7,0.2-1,0.2c-0.6,0.1-1.1,0-1.7,0l-0.2,0c-3.7-0.3-7.6,0.1-11.1,1.1l-0.1,0c-0.5,0.1-0.9,0.3-1.4,0.3
				c-1.1,0.1-2.1-0.4-3-0.9c-0.7-0.4-1.5-0.8-2.4-0.9c-1.3-0.1-2.5,0.4-3.7,1c-1.4,0.6-2.8,1.3-4.3,0.8c-0.3-0.1-0.6-0.3-0.9-0.4
				c-0.2-0.1-0.5-0.3-0.7-0.4c-0.8-0.3-1.8-0.2-2.8-0.1c-0.7,0.1-1.4,0.2-2.1,0.1c-0.6,0-1.2-0.2-1.7-0.4c-0.6-0.2-1.1-0.3-1.6-0.3
				c-0.9-0.1-1.9,0.1-2.7,0.3C363.6,139,361.9,139.5,360.2,140.2C360.3,140.2,360.2,140.2,360.2,140.2z"/>
			<g>
				<path fill="#FFFFFF" d="M360.2,145.6c-0.1,0-0.2-0.1-0.2-0.2c0-0.1,0-0.2,0.2-0.3c1.9-0.5,4-0.8,6-0.9c0.6,0,1.2-0.1,1.8,0.1
					c0.1,0,0.3,0.1,0.4,0.1c0.2,0.1,0.3,0.1,0.5,0.2c0.4,0.1,0.8,0,1.2-0.1c1.8-0.3,3.6-0.4,5.4-0.4c0.1,0,0.2,0.1,0.2,0.2
					c0,0.1-0.1,0.2-0.2,0.2c-1.8,0-3.5,0.1-5.3,0.4c-0.5,0.1-0.9,0.1-1.4,0.1c-0.2,0-0.4-0.1-0.6-0.2c-0.1,0-0.2-0.1-0.3-0.1
					c-0.5-0.2-1.1-0.1-1.6-0.1C364.2,144.8,362.2,145.1,360.2,145.6C360.3,145.6,360.2,145.6,360.2,145.6z"/>
				<path fill="#FFFFFF" d="M383.8,144.9c-0.1,0-0.2-0.1-0.2-0.2c0-0.1,0.1-0.2,0.2-0.2c1.2,0,2.4,0,3.6,0l0.1,0
					c8.6,0,17.3,0,25.9-0.1c0,0,0,0,0,0c0.1,0,0.2,0.1,0.2,0.2c0,0.1-0.1,0.2-0.2,0.2c-8.6,0.1-17.3,0.1-25.9,0.1l-0.1,0
					C386.2,144.8,385,144.8,383.8,144.9C383.8,144.9,383.8,144.9,383.8,144.9z"/>
			</g>
		</g>
		<g opacity="0.1">
			<path fill="#FFFFFF" d="M412,198.6c0,2.4-1.7,4.6-2.1,6.9c-0.5,2.3,0.2,5-0.7,7.2c-0.9,2.2-3.3,3.6-4.6,5.5
				c-1.3,2-1.7,4.7-3.4,6.4c-1.7,1.7-4.4,2.1-6.4,3.4c-1.9,1.3-3.3,3.7-5.5,4.6c-2.1,0.9-4.8,0.2-7.2,0.7c-2.3,0.4-4.5,2.1-6.9,2.1
				c-2.4,0-4.6-1.7-6.9-2.1c-2.3-0.5-5,0.2-7.2-0.7c-2.2-0.9-3.6-3.3-5.5-4.6c-2-1.3-4.7-1.7-6.4-3.4c-1.7-1.7-2.1-4.4-3.4-6.4
				c-1.3-1.9-3.7-3.3-4.6-5.5c-0.9-2.1-0.2-4.8-0.7-7.2c-0.4-2.3-2.1-4.5-2.1-6.9c0-2.4,1.7-4.6,2.1-6.9c0.5-2.3-0.2-5,0.7-7.2
				c0.9-2.2,3.3-3.6,4.6-5.5c1.3-2,1.7-4.7,3.4-6.4c1.7-1.7,4.4-2.1,6.4-3.4c1.9-1.3,3.3-3.7,5.5-4.6c2.1-0.9,4.8-0.2,7.2-0.7
				c2.3-0.4,4.5-2.1,6.9-2.1c2.4,0,4.6,1.7,6.9,2.1c2.3,0.5,5-0.2,7.2,0.7c2.2,0.9,3.6,3.3,5.5,4.6c2,1.3,4.7,1.7,6.4,3.4
				c1.7,1.7,2.1,4.4,3.4,6.4c1.3,1.9,3.7,3.3,4.6,5.5c0.9,2.1,0.2,4.8,0.7,7.2C410.4,194,412,196.2,412,198.6z"/>
		</g>
		<g>
			<path fill="#407BFF" d="M267.2,242.1h18.6c1.1,0,1.9,0.9,1.9,1.9v3.4c0,1.1-0.9,1.9-1.9,1.9h-18.6c-1.1,0-1.9-0.9-1.9-1.9V244
				C265.2,243,266.1,242.1,267.2,242.1z"/>
			<path fill="#FFFFFF" d="M266.4,242.1h20.2c0.6,0,1.1-0.5,1.1-1.1v-0.8c0-0.6-0.5-1.1-1.1-1.1h-20.2c-0.6,0-1.1,0.5-1.1,1.1v0.8
				C265.2,241.6,265.8,242.1,266.4,242.1z"/>
		</g>
		<rect x="348.5" y="252" fill="#263238" width="3" height="158.8"/>
		<path fill="#263238" d="M354.2,366.9h-8.3c-0.9,0-1.7-0.8-1.7-1.7v-2.2c0-0.9,0.8-1.7,1.7-1.7h8.3c0.9,0,1.7,0.8,1.7,1.7v2.2
			C355.9,366.2,355.1,366.9,354.2,366.9z"/>
		<polygon fill="#263238" points="320.1,410.8 317.1,410.8 348.5,364.2 351.5,364.2 		"/>
		<polygon fill="#263238" points="379.9,410.8 382.9,410.8 351.5,364.2 348.5,364.2 		"/>
		<path fill="#E0E0E0" d="M447,113.8H253c-0.8,0-1.4-0.6-1.4-1.4l0,0c0-0.8,0.6-1.4,1.4-1.4H447c0.8,0,1.4,0.6,1.4,1.4l0,0
			C448.4,113.2,447.8,113.8,447,113.8z"/>
		<polygon fill="#E0E0E0" points="454.7,249.4 245.3,249.4 250.2,254.7 449.8,254.7 		"/>
	</g>
</g>
<g id="Character_1">
	<g>
		<rect x="103.8" y="295.2" fill="#407BFF" width="96" height="2.4"/>
		<rect x="174.4" y="295.2" fill="#263238" width="25.5" height="2.4"/>
		<path fill="#263238" d="M160.6,414.3h-1.5l-6.1-62c-0.5-5.1-3.9-9-7.8-9h-11.9c-3.9,0-7.3,3.9-7.8,9l-6.1,62h-1.5l6.1-62.3
			c0.6-6.1,4.6-10.7,9.2-10.7h11.9c4.7,0,8.6,4.6,9.2,10.7L160.6,414.3z"/>
		<path fill="#263238" d="M115.5,414.3H114l-6.1-62c-0.5-5.1-3.9-9-7.8-9H88.2c-3.9,0-7.3,3.9-7.8,9l-6.1,62h-1.5L79,352
			c0.6-6.1,4.6-10.7,9.2-10.7h11.9c4.7,0,8.6,4.6,9.2,10.7L115.5,414.3z"/>
		<g>
			<g>
				<path fill="#263238" d="M109,214.5c0.2,0.6,0.7,1,1.1,0.9s0.6-0.7,0.4-1.4c-0.2-0.6-0.7-1-1.1-0.9
					C108.9,213.3,108.7,213.9,109,214.5z"/>
				<path fill="#ED893E" d="M109.6,215c0,0,2.4,2.6,4.4,3.5c-0.6,1.2-2.3,1.4-2.3,1.4L109.6,215z"/>
				<path fill="#263238" d="M106.3,212.5c-0.1,0-0.1,0-0.2,0c-0.2,0-0.4-0.2-0.3-0.4c0.4-2.1,2-2.8,2.1-2.8c0.2-0.1,0.4,0,0.5,0.2
					c0.1,0.2,0,0.4-0.2,0.5c-0.1,0-1.3,0.6-1.6,2.2C106.6,212.4,106.5,212.5,106.3,212.5z"/>
				<path fill="#FFB573" d="M89.6,224.3l6.4,6.1l8.5,4.8c-0.3,0.3-0.2,2.2-0.1,3.1c0.3,2,0.8,3.5,3.5,4.6c1,0.4,2,1,2.2,1.9
					c0.2,1.2-0.7,2.6-5.4,3.3c-5.5,0.8-9.9-0.5-13.4-1.9c-2-0.8-1.7-1.7-1.2-3.6C91.5,237.7,91.2,229.2,89.6,224.3z"/>
				<path fill="#263238" d="M87.1,244.8c1.7-4.4,2.4-7.8,2.4-7.8s13-0.9,17.3,0.8c4.3,1.7,7,9.1,7,9.1L87.1,244.8z"/>
				<path fill="#FFB573" d="M88.2,220.8c3.1,7.3,4.5,11.8,9.6,14.2c7.7,3.7,15.7-3.1,14.8-11.2c-0.7-7.3-5.6-18.1-14-18.4
					C90.5,205.2,85.1,213.5,88.2,220.8z"/>
				<path fill="#263238" d="M103.7,220.5c2.9-3.3,0.9-9-1.7-11.2c2.5-0.1,8.9-0.6,7-6.2c-1.9-5.5-8.5-6.2-10.4-3.4
					c-5.5-3-12-0.4-10.4,3.8c-6.4-1-8.3,5.4-5.6,7.9c-3.4,2.8-4.6,8.3-0.2,10.4c4.4,2.1,4.5,7.3,9,10
					C95.8,234.5,106.1,229.8,103.7,220.5z"/>
				<path fill="#FFB573" d="M99.9,221.6c1,1.6,2.7,2.7,4.1,3.1c2.2,0.6,3.3-1.9,2.5-4c-0.7-1.9-3-4-5.1-3.7
					C99.3,217.3,98.8,219.7,99.9,221.6z"/>
				<g>
					<g>
						<g>
							<g>
								<g>
									<path fill="#FFB573" d="M93.2,254.6l-6.5,13c-1.1,2.2-2.1,4.3-3.2,6.5c-1,2.1-2.1,4.3-2.9,6.4c-0.5,1.1-0.9,2.1-1.3,3.1
										l-0.5,1.5l-0.1,0.2l0,0.1l0,0l0,0l0-0.1c0.1-0.5,0.1-1,0.1-1.3c0-0.6-0.1-0.8-0.2-0.9c-0.1-0.1-0.1,0.1,0.1,0.5
										c0.1,0.3,0.3,0.7,0.5,1.2c0.4,0.9,1,1.8,1.5,2.8c2.3,3.9,5.2,7.9,7.8,12.1l0.1,0.1c1.1,1.8,0.6,4.2-1.2,5.4
										c-1.3,0.8-2.9,0.8-4.2,0c-2.2-1.4-4.3-2.9-6.3-4.6c-2-1.6-4-3.4-5.9-5.4c-1-1-1.9-2-2.8-3.3c-0.5-0.6-0.9-1.3-1.4-2
										c-0.5-0.8-1-1.6-1.4-3c-0.2-0.7-0.4-1.5-0.5-2.8c0-0.6,0-1.4,0.2-2.2l0.2-0.6l0.5-2.1c0.4-1.3,0.8-2.6,1.2-3.9
										c0.9-2.5,1.8-4.9,2.7-7.3c1-2.4,2-4.7,3-7c2.1-4.6,4.3-9.1,6.8-13.6c2.1-3.7,6.8-5.1,10.5-3
										C93.7,246.4,95,250.9,93.2,254.6L93.2,254.6z"/>
									<g>
										<g>
											<path fill="#407BFF" d="M88.1,241.6c8.4,0.3,12.2,6.6,5.2,17.7c-6,9.6-6.8,9.8-6.8,9.8l-15.2-7.5
												C76.5,251.9,79.6,241.3,88.1,241.6z"/>
										</g>
										<g opacity="0.3">
											<path d="M88.1,241.6c8.4,0.3,12.2,6.6,5.2,17.7c-6,9.6-6.8,9.8-6.8,9.8l-15.2-7.5C76.5,251.9,79.6,241.3,88.1,241.6z"/>
										</g>
									</g>
									<path fill="#FFB573" d="M92.5,301.4l-0.8-0.9c-2.6-2.4-3.7-2.1-6.7-2.1l-3.7,2.7c2.2,6.1,6.7,5.8,6.7,5.8l1.3,1.2
										c1.2,1.1,3.2,0.7,3.8-0.9l0.4-1.1C94,304.5,93.6,302.7,92.5,301.4z"/>
								</g>
								<g>
									<polygon fill="#FFB573" points="180.5,392.2 187.6,388.2 180,370.7 172.8,374.7 									"/>
									<polygon opacity="0.2" points="176.5,383.2 183.8,379.4 180,370.7 172.8,374.7 									"/>
									<path fill="#263238" d="M186.7,384.5l-9.2,0.6c-0.3,0-0.6,0.3-0.6,0.6l0.1,7.3c0,0.8,0.8,1.4,1.5,1.4
										c3.2-0.3,4.5-1.1,8.5-1.7c2.5-0.4,8.4-0.7,11.7-1.6c3.2-0.9,2.8-4,0.1-3.9c-3.5,0.2-8.2-0.7-10.7-2.4
										C187.7,384.6,187.2,384.5,186.7,384.5z"/>
									<g>
										<path fill="#263238" d="M124,308.5c0,0,41.9-2.5,45.4,13.7c7.2,33,14.2,51.3,14.2,51.3l-11.1,5.7c0,0-16.3-22.9-21.1-46.3
											c-17.1-2.6-46.9,6.5-54-6.3c-6.3-11.3-0.8-19.4-0.8-19.4L124,308.5z"/>
									</g>
									<polygon fill="#407BFF" points="172.7,382.3 185.6,376 184.1,370.7 170,377.4 									"/>
									<path fill="#407BFF" d="M189.7,385.7c-0.8,0.1-1.6,0-2.2-0.1c-0.1,0-0.1-0.1-0.2-0.1c0-0.1,0-0.2,0.1-0.2
										c0.2-0.2,2.5-1.9,3.5-1.6c0.2,0.1,0.4,0.2,0.5,0.5c0.1,0.4,0.1,0.8-0.2,1.1C190.9,385.6,190.3,385.7,189.7,385.7z
										 M188,385.3c1.5,0.2,2.6,0.1,2.9-0.3c0.1-0.2,0.2-0.4,0.1-0.7c0-0.1-0.1-0.2-0.2-0.3C190.2,383.8,188.9,384.6,188,385.3z"
										/>
									<path fill="#407BFF" d="M187.5,385.6C187.5,385.6,187.5,385.6,187.5,385.6c-0.1,0-0.2-0.1-0.2-0.2c0-0.1-0.4-2.4,0.4-3.3
										c0.2-0.2,0.5-0.3,0.8-0.3c0.4,0,0.6,0.2,0.7,0.5C189.5,383.2,188.4,385,187.5,385.6C187.6,385.6,187.6,385.6,187.5,385.6z
										 M188.4,382.2c-0.2,0-0.3,0.1-0.4,0.2c-0.5,0.5-0.4,1.9-0.4,2.6c0.7-0.7,1.4-2,1.2-2.6
										C188.9,382.4,188.8,382.2,188.4,382.2C188.5,382.2,188.4,382.2,188.4,382.2z"/>
								</g>
								<g>
									<polygon fill="#FFB573" points="133.2,407.2 141.3,406.8 142.7,387.6 134.5,388 									"/>
									<path fill="#263238" d="M142.2,404.2l-9.2-0.3c-0.3,0-0.6,0.2-0.6,0.5l-0.7,7.3c-0.1,0.8,0.6,1.5,1.4,1.5
										c3.2,0,4.6-0.4,8.6-0.2c2.5,0.1,7,0.5,11.2,0.5s2.5-3.4,0.3-3.7c-3.5-0.5-7.3-3.1-9.6-5
										C143.1,404.4,142.6,404.2,142.2,404.2z"/>
									<path fill="#407BFF" d="M145,405.7c-0.8,0-1.6-0.2-2.2-0.4c-0.1,0-0.1-0.1-0.1-0.2c0-0.1,0-0.1,0.1-0.2
										c0.3-0.2,2.6-1.7,3.6-1.3c0.2,0.1,0.4,0.3,0.4,0.6c0.1,0.4,0,0.8-0.3,1C146.2,405.7,145.7,405.8,145,405.7z M143.4,405.1
										c1.5,0.3,2.5,0.3,2.9,0c0.2-0.2,0.2-0.4,0.2-0.7c0-0.1-0.1-0.2-0.2-0.3C145.7,403.9,144.3,404.5,143.4,405.1z"/>
									<path fill="#407BFF" d="M142.9,405.4C142.9,405.4,142.8,405.4,142.9,405.4c-0.1-0.1-0.2-0.1-0.2-0.2c0-0.1-0.1-2.5,0.7-3.2
										c0.2-0.2,0.5-0.3,0.8-0.2c0.4,0.1,0.6,0.3,0.7,0.6C145.1,403.2,143.8,404.9,142.9,405.4C143,405.4,142.9,405.4,142.9,405.4
										z M144.1,402.1c-0.2,0-0.3,0-0.4,0.2c-0.5,0.5-0.6,1.8-0.6,2.6c0.7-0.6,1.6-1.9,1.5-2.4
										C144.5,402.3,144.5,402.2,144.1,402.1C144.2,402.1,144.1,402.1,144.1,402.1z"/>
									<g>
										<polygon opacity="0.2" points="134.5,388 142.7,387.6 141.9,398.6 133.8,398.6 										"/>
									</g>
									<path fill="#263238" d="M104.8,307.6c0,0,50.8,9.5,49.9,23.8c-1.8,25.7-10.4,62.4-10.4,62.4l-12.2,0.2
										c0,0-1.7-38.2-0.2-56.8c-15.2,0-45.3-0.5-51.1-8.4c-6.5-8.7,0.2-22.3,0.2-22.3L104.8,307.6z"/>
									<polygon fill="#407BFF" points="131.1,396.2 146.5,396 147.2,391 130.4,391.5 									"/>
								</g>
								<g>
									<path fill="#407BFF" d="M115.8,242.1c-5-1-27.5-0.7-27.5-0.7c-4.7-0.1-8.7,3.3-9.2,7.9c-0.8,6.9,1.5,22.3,1.7,30.2
										c0.2,9.7,0.4,13.8,0.2,26.9l52.4,2.7c1.9-23.8-5.8-35.3-10.4-59.1C122.3,246.6,120.8,243.1,115.8,242.1z"/>
									<path opacity="0.3" d="M115.8,242.1c-5-1-27.5-0.7-27.5-0.7c-4.7-0.1-8.7,3.3-9.2,7.9c-0.8,6.9,1.5,22.3,1.7,30.2
										c0.2,9.7,0.4,13.8,0.2,26.9l52.4,2.7c1.9-23.8-5.8-35.3-10.4-59.1C122.3,246.6,120.8,243.1,115.8,242.1z"/>
								</g>
								<g>
									<path fill="#FFB573" d="M122.1,249.8c2.4,4.2,4.8,8.6,7.2,12.8c1.2,2.1,2.5,4.2,3.7,6.3c1.2,2.1,2.6,4,3.9,5.9l1,1.3
										c0.3,0.5,0.6,0.8,1,1.2l0.2,0.3l0.1,0.2l0,0l0,0l-0.1-0.1c-0.1,0-0.1-0.1-0.2-0.1c0,0,0,0,0,0c0,0,0,0,0,0.1
										c0.1,0.1,0.6,0.4,0.9,0.7c1.7,1.1,3.9,2.2,6.1,3.4c4.4,2.3,8.9,4.5,13.3,7l0.1,0c1.9,1.1,2.5,3.4,1.5,5.3
										c-0.8,1.4-2.3,2.1-3.8,1.9c-5.2-0.6-10.3-1.7-15.4-3c-2.6-0.7-5.1-1.5-7.9-2.7c-0.7-0.3-1.4-0.6-2.4-1.2
										c-0.2-0.1-0.5-0.3-0.8-0.5c-0.1-0.1-0.3-0.2-0.4-0.3l-0.5-0.5l-0.3-0.2l-0.2-0.2l-0.2-0.2l-0.4-0.4
										c-0.5-0.5-1.1-1.1-1.6-1.6l-1.4-1.6c-3.6-4.3-6.6-8.6-9.4-13.1c-2.8-4.5-5.4-8.9-7.8-13.7c-1.9-3.8-0.4-8.4,3.5-10.3
										c3.7-1.8,8.1-0.4,10.1,3.1L122.1,249.8z"/>
									<g>
										<g>
											<path fill="#407BFF" d="M108.1,247.1c4.5-7.1,11.8-7.2,17.9,4.5c5.2,10,5,10.8,5,10.8l-14.2,9.3
												C111.1,262.3,103.5,254.3,108.1,247.1z"/>
										</g>
										<g opacity="0.3">
											<path d="M108.1,247.1c4.5-7.1,11.8-7.2,17.9,4.5c5.2,10,5,10.8,5,10.8l-14.2,9.3C111.1,262.3,103.5,254.3,108.1,247.1z"
												/>
										</g>
									</g>
									<path fill="#FFB573" d="M163.2,288.1l-1.2-0.2c-3.6-0.3-4.3,0.6-6.6,2.4l-1.2,4.4c5.5,3.5,8.9,0.5,8.9,0.5l1.8,0.2
										c1.7,0.2,3-1.5,2.4-3.1l-0.4-1.1C166.2,289.7,164.8,288.4,163.2,288.1z"/>
								</g>
							</g>
						</g>
					</g>
				</g>
			</g>
		</g>
		<path fill="#407BFF" d="M53.2,302.2c-0.9-5.5-0.7-11,0.7-16l1,0.3c-1.4,4.8-1.6,10.2-0.7,15.5L53.2,302.2z"/>
		
			<rect x="52" y="308.5" transform="matrix(0.1677 0.9858 -0.9858 0.1677 350.2777 203.1148)" fill="#407BFF" width="5.7" height="1"/>
		<path fill="#407BFF" d="M156.6,337l-22.4-0.9l-5.9-34.5c-3-17.7-18.4-32.1-34.3-32.1H80c-15.9,0-26.4,14.4-23.4,32.1l4,23.8
			c1.5,8.8,9.1,15.9,17,15.9h57.4h31.1c0.8,0,1.1-1.3,0.3-1.7C163.3,338,159.9,337.1,156.6,337z"/>
		<path fill="#263238" d="M161.9,340.6h-7.1v-1.8h7.1c17.9,0,32.4-16.2,32.4-36.2v-6.2h1.8v6.2C196.1,323.5,180.7,340.6,161.9,340.6
			z"/>
	</g>
</g>
<g id="Character_2">
	<g>
		<rect x="211.6" y="295.2" fill="#407BFF" width="96" height="2.4"/>
		<rect x="243.6" y="294" fill="#E0E0E0" width="32.1" height="1.2"/>
		<rect x="282.2" y="295.2" fill="#263238" width="25.5" height="2.4"/>
		<path fill="#263238" d="M268.4,414.3H267l-6.1-62c-0.5-5.1-3.9-9-7.8-9h-11.9c-3.9,0-7.3,3.9-7.8,9l-6.1,62h-1.5L232,352
			c0.6-6.1,4.6-10.7,9.2-10.7h11.9c4.7,0,8.6,4.6,9.2,10.7L268.4,414.3z"/>
		<path fill="#263238" d="M223.3,414.3h-1.5l-6.1-62c-0.5-5.1-3.9-9-7.8-9H196c-3.9,0-7.3,3.9-7.8,9l-6.1,62h-1.5l6.1-62.3
			c0.6-6.1,4.6-10.7,9.2-10.7H208c4.7,0,8.6,4.6,9.2,10.7L223.3,414.3z"/>
		<g>
			<g>
				<g>
					<path fill="#FFC3BD" d="M202.9,270.7l-1.9,14.2c-0.6,4.7-1.2,9.5-1.7,14.1l-0.2,1.7l-0.1,0.9c0-0.1,0-0.3,0-0.4
						c0-0.1-0.1-0.3-0.1-0.4c-0.1-0.2-0.2-0.4-0.2-0.5c-0.1-0.2-0.2-0.2-0.1-0.1c0,0,0.2,0.1,0.3,0.2c0.3,0.2,0.7,0.4,1.1,0.7
						c1.8,0.9,4,1.6,6.2,2.3c4.4,1.4,9.1,2.5,13.7,3.6l-0.5,4c-4.9-0.2-9.8-0.7-14.7-1.5c-2.5-0.5-4.9-1-7.5-2
						c-0.7-0.3-1.3-0.6-2.1-1c-0.4-0.2-0.8-0.5-1.2-0.8c-0.4-0.3-0.9-0.7-1.4-1.4c-0.2-0.4-0.5-0.8-0.6-1.3
						c-0.1-0.3-0.2-0.6-0.2-0.8c0-0.3-0.1-0.7,0-0.9l0-0.9l0.1-1.9c0.2-4.9,0.6-9.8,1.2-14.6c0.5-4.8,1.1-9.6,1.9-14.4L202.9,270.7z
						"/>
					<path fill="#FFC3BD" d="M230.5,311.3l-3.1,2.8c-0.7,0.7-1.8,0.8-2.7,0.4l-3.4-1.7c0,0-5.1-0.2-5.8-3.3l1.3-2.4l7.9-0.9
						c0.8-0.1,1.6,0.1,2.3,0.5l3.2,2C231.2,309.3,231.3,310.6,230.5,311.3z"/>
					<path fill="#FFC3BD" d="M211.9,241.5c0.8,4.9,1.5,13.8-2,16.9c0,0,8.5,4.4,14.1,12.2c6-4.7,1-11.8,1-11.8
						c-5.4-1.4-5.1-5.4-4-9.2L211.9,241.5z"/>
					<path fill="#263238" d="M200.3,259.7c-6.1,2-7.4,10.2-6.9,16.6l12.4,7.6c0,0,3-9.3,3-14.3C208.7,264.3,204.5,258.3,200.3,259.7
						z"/>
					<path fill="#263238" d="M239.3,271.6c-0.5,7-2.1,18.9-5.9,38.8l-33.1-1c0.9-12.2-0.4-21.3-3.4-42.7c-0.5-3.9,2.3-7.5,6.2-7.9
						c2.1-0.2,4.5-0.4,7-0.4c5.6-0.1,10.2-0.1,15,0.4c1.6,0.2,3.3,0.5,4.9,0.7C235.6,260.6,239.7,265.8,239.3,271.6z"/>
					
						<ellipse transform="matrix(-0.9518 0.3068 -0.3068 -0.9518 515.9473 381.8283)" fill="#263238" cx="228" cy="231.5" rx="0.8" ry="1.2"/>
					<path fill="#263238" d="M227.4,230.4l1.4-0.9C228.8,229.5,228.4,230.9,227.4,230.4z"/>
					<path fill="#ED847E" d="M227.6,232.7c0,0,1.9,2.4,3.5,3.3c-0.6,1-2.1,1.1-2.1,1.1L227.6,232.7z"/>
					<path fill="#263238" d="M226.2,226.1c0.1-0.1,0-0.3,0-0.4c-0.1-0.2-0.4-0.2-0.5-0.1c-1.7,1.3-1.6,3.1-1.6,3.1
						c0,0.2,0.2,0.4,0.4,0.4c0.2,0,0.4-0.2,0.4-0.4l0,0c0-0.1-0.1-1.4,1.3-2.5C226.1,226.2,226.2,226.1,226.2,226.1z"/>
					<path fill="#FFC3BD" d="M205.1,235.9c3,7.5,4,10.8,9.2,13.5c7.8,4.1,16.4-1.2,15.7-9.5c-0.6-7.4-5.3-18.5-13.8-19.2
						C207.8,220.1,202.1,228.3,205.1,235.9z"/>
					<path fill="#263238" d="M223.2,234.1c1.5-0.4,4-3.3-0.4-9.2c2.4-0.4,4.3-4.8-2.2-7.3c-6.5-2.5-13.6-1.3-17.9,4.7
						c0,0-13.7,4.1-2.5,18.2C211.3,254.6,225.5,248.9,223.2,234.1z"/>
					<path fill="#407BFF" d="M197.6,222.3c-0.1,0.7,0.4,1.4,1.1,2c1.3,1.1,3.2,1.2,4.7,0.3c1.1-0.7,2.6-1.8,4.1-3.5
						c1.5-1.6,1.4-4.3-0.3-5.7c-0.3-0.3-0.6-0.4-0.6-0.4S198.7,215.2,197.6,222.3z"/>
					<path fill="#263238" d="M198.7,221.4c4.5-0.7,6.9-4.3,7.1-5.4c-1-2.6-14-19.4-25.1-7.1c-11.7,13,11.2,26.1,3,41.7
						C198,245.8,209.6,235.9,198.7,221.4z"/>
					<path fill="#FFC3BD" d="M219.9,235.7c0.8,1.6,2.3,2.7,3.7,3.2c2.1,0.7,3.3-1.2,2.7-3.2c-0.5-1.8-2.1-4.4-4.3-4.2
						C219.9,231.6,219,233.9,219.9,235.7z"/>
					<polygon fill="#FFC3BD" points="273.5,401.6 281.3,400.9 276.1,381.6 268.3,382.4 					"/>
					<path fill="#263238" d="M291.9,406.2c-4.8-1.4-4.6-3.5-9.4-7.4c-0.5-0.4-1.1-0.7-1.7-0.8l-7.8-0.5c-0.3,0-0.5,0.2-0.6,0.5
						l-1.1,5.4c-0.4,1.9,0.8,3.7,2.4,3.7c2.6,0.1,5.8,0.2,8.6,0.4c4.1,0.3,4.2,2.4,9,2.1C294.2,409.5,293.5,406.6,291.9,406.2z"/>
					<polygon fill="#FFC3BD" points="302.6,376.8 307.9,372.2 299.1,358.8 292.4,365.1 					"/>
					<path fill="#263238" d="M306.5,369.4l-6.3,5.9c-0.3,0.2-0.3,0.6-0.1,0.9l3,4.6c1,1.6,3.1,1.7,4.7,0.5c2.1-1.6,3.2-4.4,5.7-6.7
						c3.6-3.3,4.2-3.3,6.4-7.9c1.5-3.1-1.8-3.2-2.9-2.2c-2.9,2.5-1.8,2.6-8.5,4C307.7,368.6,307,368.9,306.5,369.4z"/>
					<g>
						<path fill="#407BFF" d="M221.8,309.9c0,0,53.6-7.9,59.2,5.8c9.7,23.9,23.6,50.9,23.6,50.9l-6.3,5.8c0,0-24-21.5-32.3-45.5
							c-9.9,3.2-41.5,13.6-53.1,13.6c-12.4,0-17.4-10.5-12.9-28c0.4-1.6,1.8-2.6,3.4-2.6C211.1,309.7,221.8,309.9,221.8,309.9z"/>
						<path opacity="0.5" fill="#FFFFFF" d="M221.8,309.9c0,0,53.6-7.9,59.2,5.8c9.7,23.9,23.6,50.9,23.6,50.9l-6.3,5.8
							c0,0-24-21.5-32.3-45.5c-9.9,3.2-41.5,13.6-53.1,13.6c-12.4,0-17.4-10.5-12.9-28c0.4-1.6,1.8-2.6,3.4-2.6
							C211.1,309.7,221.8,309.9,221.8,309.9z"/>
					</g>
					<g>
						<path fill="#407BFF" d="M226.9,316.9c0,0,44-1.3,44.4,14.3c0.6,25.8,8.5,62.7,8.5,62.7l-8.7,0.8c0,0-13.1-29.4-16.6-54.6
							c-15.7,1-30.1,0.3-41.7,0.3c-13,0-14-14.2-1.4-30.9C219.1,309.5,226.9,316.9,226.9,316.9z"/>
						<path opacity="0.5" fill="#FFFFFF" d="M226.9,316.9c0,0,44-1.3,44.4,14.3c0.6,25.8,8.5,62.7,8.5,62.7l-8.7,0.8
							c0,0-13.1-29.4-16.6-54.6c-15.7,1-30.1,0.3-41.7,0.3c-13,0-14-14.2-1.4-30.9C219.1,309.5,226.9,316.9,226.9,316.9z"/>
					</g>
					<path fill="#FFFFFF" d="M199.8,307.5l-0.9,2.9c-0.1,0.2,0.1,0.5,0.5,0.5l34.1,1c0.3,0,0.6-0.1,0.6-0.3l0.4-3
						c0-0.2-0.2-0.4-0.6-0.4l-33.5-1C200.1,307.3,199.8,307.4,199.8,307.5z"/>
					<g>
						<path fill="#263238" d="M204.2,311.4l-0.9,0c-0.2,0-0.3-0.1-0.3-0.2l0.5-3.8c0-0.1,0.2-0.2,0.4-0.2l0.9,0
							c0.2,0,0.3,0.1,0.3,0.2l-0.5,3.8C204.5,311.3,204.3,311.4,204.2,311.4z"/>
						<path fill="#263238" d="M230.9,312.2l-0.9,0c-0.2,0-0.3-0.1-0.3-0.2l0.5-3.8c0-0.1,0.2-0.2,0.4-0.2l0.9,0
							c0.2,0,0.3,0.1,0.3,0.2l-0.5,3.8C231.2,312.1,231.1,312.2,230.9,312.2z"/>
						<path fill="#263238" d="M217.5,311.8l-0.9,0c-0.2,0-0.3-0.1-0.3-0.2l0.5-3.8c0-0.1,0.2-0.2,0.4-0.2l0.9,0
							c0.2,0,0.3,0.1,0.3,0.2l-0.5,3.8C217.9,311.7,217.7,311.8,217.5,311.8z"/>
					</g>
					<path fill="#FFC3BD" d="M240.5,275.4c0.1,0.7,0.3,1.6,0.5,2.5c0.2,0.8,0.4,1.7,0.6,2.5c0.4,1.7,0.9,3.3,1.5,5
						c0.6,1.6,1.2,3.2,1.9,4.7c0.7,1.5,1.5,2.9,2.4,4.2l0.2,0.2c0,0.1,0,0-0.1-0.1c0,0-0.1-0.1-0.1-0.1c-0.1-0.1-0.2-0.2-0.3-0.2
						c-0.4-0.3-0.7-0.3-0.8-0.3c-0.3,0-0.1,0,0.1,0c0.5,0,1.2-0.2,2-0.5c1.5-0.5,3.2-1.2,4.8-2c3.2-1.5,6.5-3.2,9.8-4.9l2.4,3.3
						c-2.9,2.6-5.8,4.9-9.1,7c-1.6,1-3.3,2.1-5.2,3c-1,0.4-2,0.9-3.3,1.2c-0.7,0.1-1.5,0.3-2.7,0.1c-0.6-0.1-1.3-0.3-2.1-0.9
						c-0.2-0.1-0.4-0.3-0.5-0.4l-0.3-0.3l-0.2-0.2l-0.3-0.3c-2.8-3.3-4.6-7-6.1-10.7c-0.7-1.9-1.3-3.8-1.8-5.7
						c-0.2-1-0.5-1.9-0.7-2.9c-0.2-1-0.4-1.9-0.5-3L240.5,275.4z"/>
					<path fill="#263238" d="M236.5,263.4c5.8,4.5,5.8,17.6,5.8,17.6l-10,2.8c0,0-7.2-8.7-5.4-12.8
						C228.9,266.6,233.4,261,236.5,263.4z"/>
					<path fill="#263238" d="M271.3,286.3c-0.2,0-0.3-0.1-0.4-0.3l-7.9-15.2c-0.1-0.2,0-0.5,0.2-0.6c0.2-0.1,0.5,0,0.6,0.2l7.9,15.2
						c0.1,0.2,0,0.5-0.2,0.6C271.5,286.2,271.4,286.3,271.3,286.3z"/>
					<path fill="#FFC3BD" d="M268,277.6l-3,1.8c-0.8,0.5-1.3,1.2-1.7,2l-2.8,7.3l-1.3,4.6c3,1.1,8.4-6,8.4-6l3.4-2.6
						c0.6-0.4,0.8-1.1,0.6-1.8l-1.2-4.4C270.2,277.6,269,277.1,268,277.6z"/>
				</g>
			</g>
		</g>
		<path fill="#407BFF" d="M264.4,337l-22.4-0.9l-5.9-34.5c-3-17.7-18.4-32.1-34.3-32.1h-14.1c-15.9,0-26.4,14.4-23.4,32.1l4,23.8
			c1.5,8.8,9.1,15.9,17,15.9h57.4H274c0.8,0,1.1-1.3,0.3-1.7C271.1,338,267.7,337.1,264.4,337z"/>
		<path fill="#263238" d="M269.7,340.6h-7.1v-1.8h7.1c17.9,0,32.4-16.2,32.4-36.2v-6.2h1.8v6.2C303.9,323.5,288.5,340.6,269.7,340.6
			z"/>
	</g>
</g>
<g id="Character_3">
	<g>
		<g>
			<polygon fill="#B55B52" points="380.3,394 393.1,391.2 395.5,406.5 384.8,408.8 			"/>
			<polygon opacity="0.2" points="380.3,394 393.1,391.2 394.5,399.8 382.9,402.3 			"/>
		</g>
		<path fill="#263238" d="M388,335.7c4.3-19.8,13.1-40.6,4.7-59.5l-36.6-0.1c0,0,2.8,43.4,4.1,61.8c1.3,19,20.6,62.2,20.6,62.2
			l14.6-3.2C395.5,396.8,391.4,356.9,388,335.7z"/>
		<path opacity="0.2" d="M388.4,333.8c2.6-11.5,6.5-23.2,7.5-34.7C382.1,283.9,383.8,314.8,388.4,333.8z"/>
		<path fill="#263238" d="M398.5,410.8l-3.4,0.8l-1-1l-1.2,1.5l-6.2,2.7c-2.3,1-4.7,1.5-7.2,1.5h-5.1c-0.3-1.7,0.8-3.9,0.8-3.9
			s4.9-0.9,7.5-5c0.3-0.5,0.9-0.6,1.4-0.6c2.3-0.1,8.5-0.4,11.6-2.4c0.3-0.2,0.7,0,0.8,0.3C397.1,407.5,398.5,410.8,398.5,410.8z"/>
		<g>
			<polygon fill="#B55B52" points="410,395.9 423.1,396 423.7,411.4 412.7,411.4 			"/>
			<polygon opacity="0.2" points="410,395.9 423.1,396 423.4,404.6 411.5,404.5 			"/>
		</g>
		<path fill="#263238" d="M424.3,335.7c1.1-19.8,2.5-49.5-4.2-58.7l-40.8-0.9c0,0,11.4,43.4,15.6,61.8c4.4,19,15.2,64,15.2,64
			l14.2,0C424.2,401.9,429.6,358.3,424.3,335.7z"/>
		<g>
			<path fill="#B65B52" d="M372.5,217.2l-0.6,0.5l-0.5,0.4l-0.9,0.7c-0.6,0.4-1.2,0.9-1.7,1.3c-1.2,0.8-2.4,1.5-3.6,2.2
				c-2.4,1.3-5,2.4-7.7,3.2c-1.3,0.4-2.7,0.7-4.1,1c-1.4,0.3-2.8,0.5-4.2,0.6c-2.8,0.3-5.6,0.2-8.4-0.1l-1.1-0.1
				c-1-0.1-1.9-0.5-2.7-1c-2.6-1.7-4.5-3.6-6.1-5.5c-1.6-1.9-2.9-3.9-4-5.9c-1.1-2-2-4-2.8-6.1c-0.4-1-0.7-2.1-1.1-3.1
				c-0.3-1.1-0.6-2.1-0.8-3.3c-0.6-2.6,1.1-5.2,3.7-5.8c1.7-0.4,3.3,0.2,4.4,1.3l0.5,0.5c0.6,0.6,1.3,1.4,1.9,2
				c0.6,0.7,1.3,1.4,1.9,2.1c1.3,1.3,2.6,2.7,3.8,3.8c1.3,1.2,2.6,2.3,3.8,3.2c1.2,0.9,2.4,1.5,3.3,1.9l-3.8-1.1
				c1.7-0.1,3.3-0.4,4.9-0.7c1.6-0.4,3.2-0.9,4.7-1.5c1.5-0.6,3.1-1.3,4.5-2.2c0.7-0.4,1.4-0.9,2.1-1.3c0.3-0.2,0.7-0.4,1-0.7
				l0.4-0.3l0.2-0.1l0.1,0c0,0,0,0,0,0c0,0,0,0-0.1,0.1c3.9-3.5,10-3.2,13.5,0.8C376.8,207.6,376.4,213.7,372.5,217.2z"/>
		</g>
		<path fill="#B55B52" d="M324.9,203.9l3.8-4c2.3-5.3-5.1-7.1-5.1-7.1l-4.6-3.3c-1.1-0.8-2.7-0.5-3.7,0.6l-2.7,2.8
			c-1.2,1.3-1.3,3.2-0.2,4.2l3.8,3.5c0.7,0.7,1.6,1.2,2.5,1.5L324.9,203.9z"/>
		<g>
			<path fill="#407BFF" d="M376.8,195.3c-8.9-0.5-21.8,9.7-21.8,9.7c-1.2,3.4,1.8,16,7.2,21.5c0,0,6.2,1.5,11.7-5.1
				C379.7,214.3,386.2,195.9,376.8,195.3z"/>
		</g>
		<path fill="#407BFF" d="M378.5,195c10.8-1.1,25.2-1,36.4,0.6c7,1,11.6,7.7,10.2,14.6c-5.7,28.5-1.4,60.4-5.1,66.7
			c0,0-40.4,0.7-64-0.9c-6.4-31,6.2-49.9,12.6-74.1C369.9,197.9,374.3,195.5,378.5,195z"/>
		<g>
			<path fill="#B65B52" d="M428.1,206.8l0.9,1.1l0.8,1c0.5,0.7,1,1.4,1.5,2.1c1,1.4,1.9,2.8,2.8,4.3c1.7,2.9,3.3,5.9,4.7,9.2
				c1.4,3.2,2.5,6.6,3.3,10.4c0.8,3.7,1.1,7.8,0.4,12.2l-0.1,0.8c-0.1,0.7-0.3,1.3-0.7,1.9c-1.2,2.1-2.6,4.1-4,6
				c-1.4,1.9-2.9,3.6-4.5,5.2c-1.6,1.6-3.2,3.2-4.9,4.6c-1.7,1.5-3.5,2.8-5.5,4.1c-2.3,1.5-5.3,0.8-6.7-1.5c-1-1.5-1-3.3-0.3-4.8
				l0.2-0.4c0.9-1.7,1.9-3.6,2.8-5.3c0.9-1.8,1.9-3.5,2.8-5.3c0.9-1.7,1.7-3.5,2.5-5.2c0.8-1.7,1.4-3.4,2.1-5l-0.8,2.7
				c0-1.7-0.4-3.7-1-5.9c-0.3-1.1-0.7-2.2-1.2-3.4c-0.5-1.1-1-2.3-1.6-3.5c-1.2-2.3-2.5-4.7-3.9-6.9c-0.7-1.2-1.5-2.3-2.2-3.4
				l-1.1-1.7l-1-1.5l-0.3-0.5c-3-4.3-2-10.3,2.3-13.3C419.3,202,425,202.9,428.1,206.8z"/>
			<g>
				<path fill="#407BFF" d="M418.1,196.5c8.4,3,16.2,17.1,16.2,17.1c-0.4,5.2-8.5,16.8-14.4,19.3c0,0-6.2-4.9-8.7-13.1
					C408.7,211,413.8,197.8,418.1,196.5z"/>
			</g>
		</g>
		<path fill="#B55B52" d="M384.3,197.1c0.5-1.1,2.1-2.9,3.7-3.5c0.6-1.4,0.6-3,0.1-4.8l17.9-5.7c-1.5,5.9-2.6,10.6-0.4,13.5
			c-3.5,2.2-10,6-17,5.8C381.6,202.3,383.1,199.6,384.3,197.1z"/>
		<path opacity="0.2" d="M388.2,189.4l13.5-0.8c-4.2,4.5-10.6,6.2-13.5,4.4C388.5,191.9,388.5,190.7,388.2,189.4z"/>
		<g>
			<path fill="#407BFF" d="M388.2,202.5l2.9-2.4l3.9,2C395,202,392.5,204.3,388.2,202.5z"/>
			<path opacity="0.3" d="M388.2,202.5l2.9-2.4l3.9,2C395,202,392.5,204.3,388.2,202.5z"/>
		</g>
		<path fill="#F5F5F5" d="M398.1,164.6c-0.2-5.5-5.5-8-10.1-5.1c-4.6,2.9-5.1,11.7-1.6,16.4C389.8,180.5,398.1,164.6,398.1,164.6z"
			/>
		<path fill="#B55B52" d="M409.5,174.1c-2.1,7.7-3.8,12.9-9.4,15.4c-11.1,4.9-16-0.3-16.4-8.5c-0.4-7.3,3.2-18.7,12.1-20.4
			C404.6,159,411.7,166.4,409.5,174.1z"/>
		<path fill="#E0E0E0" d="M403.4,170.1c-2.4,2.3-3.3,12.3,0.3,12.1c3.6-0.2,7.3-0.9,7.3-0.9s4.6-1.7,2.1-8.6
			C410.5,165.7,403.4,170.1,403.4,170.1z"/>
		<path opacity="0.2" d="M397,173.1c0,0,1.8-0.5,3,0.4C398.3,173.7,397,173.1,397,173.1z"/>
		<path opacity="0.2" d="M396.9,173.9c0,0,1.7-0.1,2.5,1C397.9,174.6,396.9,173.9,396.9,173.9z"/>
		<path opacity="0.2" d="M390.2,165c0,0,4.2,0,7.5,0.8C393.5,165.5,390.2,165,390.2,165z"/>
		<path opacity="0.2" d="M389,165.7c0,0,5.8,0.6,8.4,1.9C392.4,166.7,389,165.7,389,165.7z"/>
		<path fill="#B55B52" d="M411.1,183.1c-1.6,1.7-3.8,2.5-5.7,2.6c-2.9,0.1-3.6-2.7-2.3-5c1.2-2.1,4.2-4.7,6.8-3.6
			C412.6,178.1,412.9,181.2,411.1,183.1z"/>
		<path fill="#263238" d="M394.5,173.1c-0.1,0.7-0.6,1.2-1,1.1s-0.7-0.7-0.6-1.4s0.6-1.2,1-1.1S394.6,172.4,394.5,173.1z"/>
		<path fill="#263238" d="M387.3,171.9c-0.1,0.7-0.6,1.2-1,1.1c-0.4-0.1-0.7-0.7-0.6-1.4c0.1-0.7,0.6-1.2,1-1.1
			C387.2,170.6,387.5,171.2,387.3,171.9z"/>
		<path fill="#F28971" d="M389.6,172.9l-1,5.8c0,0-1,0-2-0.3c-0.6-0.2-0.7-1-0.2-1.3C388.1,175.8,389.6,172.9,389.6,172.9z"/>
		<path fill="#263238" d="M398.5,171.8c0.1,0,0.1,0,0.2,0c0.2-0.1,0.3-0.3,0.2-0.6c-1-2-2.9-2.3-3-2.3c-0.2,0-0.4,0.1-0.5,0.4
			c0,0.2,0.1,0.4,0.4,0.5l0,0c0.1,0,1.5,0.2,2.3,1.9C398.2,171.7,398.4,171.8,398.5,171.8z"/>
		<path fill="#263238" d="M384.9,169.5c0.1,0,0.3,0,0.4-0.1c1.2-1.3,2.7-1.1,2.8-1.1c0.2,0,0.4-0.1,0.5-0.3c0-0.2-0.1-0.4-0.3-0.5
			c-0.1,0-2-0.3-3.5,1.3c-0.2,0.2-0.1,0.4,0,0.6C384.8,169.5,384.9,169.5,384.9,169.5z"/>
		<path fill="#FFFFFF" d="M404.4,192.7c0,0-5.8,7-13.3,7.4c4.4,2.1,5.1,7,5.1,7s9.4-2.9,11.2-12.9
			C406.3,192.6,404.4,192.7,404.4,192.7z"/>
		<g>
			<path fill="#407BFF" d="M388.2,202.5l-3.3-3l-4.2,1.2C380.7,200.8,383.9,204.3,388.2,202.5z"/>
			<path opacity="0.3" d="M388.2,202.5l-3.3-3l-4.2,1.2C380.7,200.8,383.9,204.3,388.2,202.5z"/>
		</g>
		<path fill="#FFFFFF" d="M388,193.7c0,0-2.9,3.4-3.1,5.8c-3.5,1-5.2,6.2-5.2,6.2s-0.6-7.4,4.9-11.4
			C385.9,193.4,388,193.7,388,193.7z"/>
		<path fill="#263238" d="M425.5,416.2h-2.8l-0.8-1.2l-1.5,1.2h-17.2c-0.3-1.7,0.7-3.9,0.7-3.9s5.1-0.5,7.1-3
			c0.2-0.2,0.4-0.3,0.6-0.3c1.7,0.4,8.5,1.6,12.3,0.3c0.4-0.1,0.8,0.1,0.8,0.6C424.9,412.8,425.5,416.2,425.5,416.2z"/>
		<g>
			<path fill="#263238" d="M388.3,205.1c0.8-1.3,1.2-2.6,0.3-3.2c-0.7-0.4-2.6-1-3,0.3c-0.4,1.3-0.4,2.4,0.2,3
				C386.5,205.8,387.8,205.9,388.3,205.1z"/>
			<path fill="#263238" d="M388.8,202.1c1.7-2.4,6.7-3.2,6.7-1.3c0,3.7-0.1,7.5-1.7,8.4c-1.6,0.9-4.1-4.9-5.3-5L388.8,202.1z"/>
			<path fill="#263238" d="M386,202c-1-2.5-4.2-3.4-4.7-1.5c-1,3.5-1.1,6.5,0,7.5c1.2,1,3.6-3.9,4.6-3.8L386,202z"/>
		</g>
		<path fill="#B55B52" d="M330.1,198.7c1.3-4.6-1.9-7.4-3.7-10.4c-0.3-0.5-1.8-0.2-1.9,0.8c-0.1,1.9,0.2,2.7,0.9,3.7
			c-0.9,1.2-2.3,5.2,0.9,7.9C328.5,200.6,330.1,198.7,330.1,198.7z"/>
		<g>
			<path fill="#FFFFFF" d="M416.7,195.8c-0.6-0.5-2-0.8-3-0.5c-3.1,3.6-16.7,29.7-11.1,78.2h3.2C400.2,225,413.6,199.4,416.7,195.8z
				"/>
			<path fill="#FFFFFF" d="M406.1,277.4l-0.3-3.6c0-0.4-0.4-0.7-0.8-0.6l-1.5,0.1c-0.4,0-0.7,0.4-0.7,0.7l0.3,3.6
				c0,0.4,0.4,0.7,0.8,0.6l1.5-0.1C405.8,278.1,406.1,277.8,406.1,277.4z"/>
			<path fill="#263238" d="M406.2,275.1h-3.4c-0.4,0-0.7-0.3-0.8-0.7l-0.2-1.4c-0.1-0.4,0.2-0.7,0.5-0.7h3.4c0.4,0,0.7,0.3,0.8,0.7
				l0.2,1.4C406.8,274.8,406.5,275.1,406.2,275.1z"/>
		</g>
		<g>
			<path fill="#FFFFFF" d="M379.4,195c-0.6-0.5-2.5-0.2-3.4,0.3c-3.3,3.6-18,29.7-14.6,78.2h3.2C361.2,225,376.1,198.6,379.4,195z"
				/>
			<path fill="#FFFFFF" d="M364.7,277.4l-0.1-3.6c0-0.4-0.4-0.7-0.8-0.6l-1.5,0.1c-0.4,0-0.7,0.4-0.7,0.7l0.1,3.6
				c0,0.4,0.4,0.7,0.8,0.6l1.5-0.1C364.4,278.1,364.8,277.8,364.7,277.4z"/>
			<path fill="#263238" d="M364.9,275.1h-3.4c-0.4,0-0.7-0.3-0.7-0.7l-0.2-1.4c0-0.4,0.2-0.7,0.6-0.7h3.4c0.4,0,0.7,0.3,0.7,0.7
				l0.2,1.4C365.5,274.8,365.3,275.1,364.9,275.1z"/>
		</g>
		<path fill="#F5F5F5" d="M396.8,154.3c-3.9-3.1-10.3,5.2-1.8,9.8c10.6,5.8,9.4,15.1,23.1,12.3c-5.9-4.1-2.1-7.3-4.6-13.2
			C410.7,156.5,403.1,159.3,396.8,154.3z"/>
		<path fill="#F5F5F5" d="M390.9,159.3c1.3,4.6,2.8,5.7,4.2,6.9c-1.5-2.2-2.1-5.1-2.1-5.1L390.9,159.3z"/>
		<path fill="#263238" d="M385.2,180.8c0,0,3-0.2,11.1,1c-1.3,2.3-3.4,4-7.5,3.4C384.6,184.5,385.2,180.8,385.2,180.8z"/>
		<path fill="#A02724" d="M391,183.5c-2-0.3-3.5-0.1-4.7,0.5c0.5,0.5,1.3,0.9,2.5,1.1c2,0.3,3.5,0.1,4.7-0.5
			C393,184.1,392.2,183.7,391,183.5z"/>
		<path fill="#8F583D" d="M385.6,180.8c0.2,0.6,0.3,1.1,1.1,1.4c1.7,0.4,6.1,0.5,7.3,0.5c0.8,0,1.4-0.2,2-0.9
			C389.7,180.8,386.6,180.8,385.6,180.8z"/>
		<path fill="#F5F5F5" d="M385.1,186.8c0.1,2.2,2.3,4,1.7,5.4c2.7,0.2,5.6-0.4,7.7-1.7c0.9-0.5,0.6-1.9-0.5-2c-2-0.3-3.8-1-4.8-1.7
			c-0.4-0.3-0.9-0.4-1.3,0C386.2,188,385.1,186.8,385.1,186.8z"/>
		<polygon fill="#263238" points="422.3,277 371.5,241.6 372.1,240.8 423.3,275.4 		"/>
		<path fill="#B55B52" d="M417.9,262.4l4.9,2.5c3.9,4.3-2.5,8.4-2.5,8.4l-2.3,3.2c-0.8,1.1-2.3,1.4-3.7,0.7l-3.5-1.7
			c-1.6-0.8-2.3-2.5-1.7-3.9l1.5-3.1c0.4-0.9,1.1-1.7,1.9-2.3L417.9,262.4z"/>
	</g>
</g>
</svg>
